<svg width="28" height="34" viewBox="0 0 28 34" fill="none" xmlns="http://www.w3.org/2000/svg">
<path d="M14.3815 0H14.2811L0.730957 1.39589V26.0235L14.2811 34L27.731 26.0235V1.39589L14.3815 0ZM25.8239 12.0645L14.2811 5.28446V5.18475H14.1808L14.0804 5.08504V5.18475L2.63802 12.0645V3.09091L14.1808 1.89443L25.8239 3.09091V12.0645ZM14.1808 6.78006L25.7235 13.4604L21.2068 16.0528L14.0804 11.8651V13.261L20.0023 16.7507L19.099 17.2493L14.0804 14.2581V15.654L17.8945 17.9472L17.0916 18.4457L14.0804 16.651V18.0469L15.9875 19.1437L14.1808 20.2405L2.73839 13.5601L14.1808 6.78006ZM2.63802 15.0557L14.0804 21.8358V22.8328L6.15103 18.1466V19.5425L14.1808 24.3284V25.4252L6.15103 20.739V22.1349L14.1808 26.9208L22.3109 22.0352V16.8504L25.7235 14.8563V24.827L14.1808 31.7067L2.63802 24.9267V15.0557Z" fill="#63D1BB"/>
</svg>
