<svg width="102" height="34" viewBox="0 0 102 34" fill="none" xmlns="http://www.w3.org/2000/svg">
<path d="M19.2693 21.3813C19.169 18.6962 18.768 16.1105 18.768 13.4255C18.768 11.2376 19.169 9.04976 18.367 6.96135C18.367 6.76246 18.4673 6.46411 18.4673 6.26522C18.6678 5.27074 15.1589 5.76798 14.6576 6.76246C14.3568 7.0608 14.1563 7.35914 14.2566 7.75694C14.2566 7.85638 14.3568 7.95583 14.3568 8.05528C13.655 11.2376 12.7528 14.3205 11.7502 17.4034C11.3492 18.5967 10.8479 19.6907 10.4469 20.884C9.84538 19.7901 9.24386 18.6962 8.84284 17.5028C7.43928 14.1216 6.23623 10.6409 4.5319 7.35914C4.73241 5.86743 1.32377 5.96688 0.621986 7.35914C-0.180049 9.04976 -0.0797942 10.7404 0.220969 12.5304C0.521732 14.5194 0.621986 16.5083 0.621986 18.5967C0.621986 22.5746 1.023 26.4531 1.023 30.431C0.621986 30.8288 0.521732 31.326 0.922749 31.8233C1.12326 32.0222 1.32377 32.2211 1.52427 32.3205C2.52682 33.0167 5.13343 32.42 5.13343 31.0277C5.13343 26.9503 4.83267 22.873 4.73241 18.6962C4.73241 18.2984 4.73241 17.9006 4.73241 17.5028C4.83267 17.6023 4.83267 17.8012 4.93292 17.9006C5.53445 19.4918 6.23623 21.0829 7.13852 22.5746C8.0408 24.0664 8.44182 25.6575 8.94309 27.2487C8.74258 27.4476 8.64233 27.7459 8.74258 27.9448C8.74258 28.1437 8.84284 28.2432 9.04335 28.3426C9.64487 28.8399 10.8479 28.641 11.5497 28.3426C11.8505 28.2432 12.1512 28.0443 12.3517 27.9448C12.6525 27.7459 13.254 27.2487 13.0535 26.7515C13.0535 26.652 12.9533 26.5526 12.9533 26.4531C13.4545 25.1603 13.655 23.8675 13.9558 22.5746C14.2566 21.1824 14.7578 19.7901 15.2591 18.4973C15.3594 19.094 15.3594 19.6907 15.4596 20.3868C15.6601 22.9724 15.4596 25.4586 15.4596 27.9448C15.4596 28.7404 15.5599 29.536 15.6601 30.431C15.7604 30.7294 16.0611 32.2211 15.9609 32.3205C15.1589 32.8178 15.3594 33.4144 16.1614 33.6133C17.0637 33.8122 18.2667 33.5139 18.9685 32.9172C20.1716 31.8233 19.57 30.1327 19.3695 28.7404C18.8683 26.3537 19.3695 23.768 19.2693 21.3813Z" fill="black"/>
<path d="M27.6904 22.0776C27.5901 20.0887 26.8884 18.1992 26.8884 16.2102C26.8884 13.9229 27.0889 11.6356 26.6879 9.34833C26.5876 8.65219 22.5774 9.44778 22.7779 10.3428C23.0787 12.4312 22.9784 14.5196 22.9784 16.7075C22.9784 18.6964 23.4797 20.5859 23.6802 22.5749C23.981 24.6633 23.58 26.7517 23.7805 28.7406C23.8807 29.7351 24.5825 31.4257 23.8807 32.3208C23.4797 32.818 25.3845 32.6191 25.4848 32.6191C26.2868 32.5196 27.2894 32.2213 27.7906 31.6246C28.4924 30.829 27.9912 29.2379 27.8909 28.2434C27.5901 26.2544 27.7906 24.0666 27.6904 22.0776Z" fill="black"/>
<path d="M44.0322 18.7956C41.9269 16.0111 38.1172 18.0001 35.4104 17.3039C34.0068 16.9061 34.0068 15.0166 34.0068 13.9227C34.0068 12.5304 33.9065 11.2376 33.706 9.84534C33.6058 8.75142 33.706 7.75694 34.4078 6.96136C34.5081 6.86191 35.3101 6.66302 35.2099 6.66302C35.6109 6.56357 35.9116 6.56357 36.3127 6.56357C37.8165 6.46412 40.9243 6.76247 40.3228 9.04976C40.0221 10.0442 43.932 9.44755 44.2327 8.45308C45.4358 3.87848 36.9142 4.77351 34.5081 5.3702C32.3025 5.96688 29.8964 7.16026 29.6959 9.7459C29.5956 10.9393 29.9966 12.1326 29.9966 13.326C30.0969 14.7183 29.7961 16.1106 30.2974 17.4034C31.4002 20.3868 35.8114 18.9945 38.1172 19.094C41.9269 19.3923 40.8241 24.5636 40.8241 26.9504C40.8241 28.2432 42.0271 30.3316 41.0246 31.4255C40.4231 32.1216 39.0195 32.1216 38.2175 32.2211C37.4155 32.3205 36.0119 32.5194 35.5106 31.7238C34.5081 30.3316 35.6109 27.9448 35.4104 26.3537C35.3101 25.4586 31.2999 26.2542 31.5004 27.3481C31.8012 29.9338 30.0969 33.4145 33.9066 33.9117C36.3127 34.21 39.1198 33.7128 41.4256 33.0167C42.6287 32.6189 43.7315 32.1216 44.6338 31.2266C45.6363 30.3316 45.3355 28.9393 45.0348 27.7459C44.5335 24.6631 45.9371 21.2818 44.0322 18.7956Z" fill="black"/>
<path d="M61.4761 18.5966C61.3758 14.8176 60.7743 11.1381 60.7743 7.35905C60.7743 5.37009 56.7641 6.06623 56.7641 7.65739C56.7641 11.2375 57.2654 14.8176 57.4659 18.3977C57.4659 18.4972 57.4659 18.4972 57.4659 18.5966C55.5611 18.5966 53.556 18.7955 51.5509 18.7955C51.7514 14.2209 50.9494 9.64634 51.1499 4.9723C51.1499 4.37561 47.24 4.87285 47.24 5.96678C47.0395 10.4419 47.8415 14.8176 47.7412 19.2928C47.641 21.3812 47.5407 23.569 47.4405 25.6574C47.4405 26.7514 47.641 27.8453 47.7412 28.9392C47.8415 29.9337 48.2425 31.2265 47.9417 32.221C47.7412 33.0166 51.5509 32.5193 51.8517 31.5248C52.3529 29.7348 51.6512 27.5469 51.4506 25.7569C51.2501 24.0663 51.4506 22.2762 51.5509 20.5856C53.556 20.4861 55.6613 20.2873 57.6664 20.5856C57.7667 21.9779 57.8669 23.3701 57.9672 24.663C58.0674 25.8563 58.1677 26.9502 58.1677 28.1436C58.1677 29.1381 58.2679 30.6298 57.9672 31.6243C57.1651 33.7127 61.0751 33.5138 61.6766 32.0221C62.3784 30.1326 62.1779 27.8453 62.0776 25.8563C61.8771 23.3701 61.4761 20.9834 61.4761 18.5966Z" fill="black"/>
<path d="M78.4189 22.9729C77.5166 20.1884 76.0128 17.8016 74.8098 15.216C75.8123 13.3265 76.8149 11.3375 77.7172 9.34855C78.5192 7.55849 79.1207 5.56954 80.825 4.27672C81.4266 3.87892 81.4266 3.38169 80.5243 3.28224C79.622 3.18279 78.4189 3.48113 77.7172 3.97837C76.3136 5.27119 75.3111 6.66346 74.6093 8.35407C73.707 10.4425 72.7044 12.4314 71.7019 14.4204C71.6016 14.5198 71.6016 14.7187 71.5014 14.8182C71.0001 15.1165 70.6994 15.6138 70.8999 16.111C70.0978 17.7022 69.2958 19.1939 68.3935 20.6856C68.0927 15.216 67.391 9.64689 67.1905 4.17727C67.1905 2.88445 63.1803 3.68003 63.2805 5.17174C63.481 12.0336 64.4836 18.7961 64.5838 25.658C64.5838 25.658 64.5838 25.658 64.5838 25.7574C64.2831 26.0558 64.3833 26.2547 64.6841 26.3541C64.6841 28.1442 64.5838 29.8348 64.4836 31.6248C63.9823 32.321 64.9849 32.7188 65.5864 32.7188H65.6866C66.3884 32.7188 68.2932 32.4204 68.3935 31.3265C68.594 29.2381 68.6943 27.1497 68.594 25.0613C70.1981 23.3707 71.5014 21.4812 72.7044 19.4922C73.5065 20.9839 74.2083 22.4756 74.7095 24.0668C75.6118 26.7519 77.0154 29.3375 77.8174 32.0226C78.3187 33.8127 82.3289 32.7188 81.7273 31.0282C80.7248 28.2436 79.3212 25.7574 78.4189 22.9729Z" fill="black"/>
<path d="M101.979 18.3983C101.779 17.6027 100.576 17.6027 99.6736 17.6027C99.6736 17.3043 99.6736 16.9066 99.6736 16.6082C99.5733 13.9231 99.4731 11.238 99.2726 8.6524C99.0721 6.1662 97.6685 5.37062 95.2624 5.47007C92.8563 5.56952 90.0492 5.96731 87.7433 6.86234C85.1367 7.85682 83.6329 9.74632 83.1316 12.5309C82.6304 15.5143 83.3321 18.6966 83.5327 21.68C83.7332 25.1607 83.6329 28.6414 83.6329 32.1221C83.6329 32.7187 87.5428 32.1221 87.5428 31.1276C87.5428 28.343 87.5428 25.5585 87.5428 22.8734C87.5428 22.0778 87.4426 21.2823 87.4426 20.4867C88.8461 19.89 91.152 20.4867 92.5555 20.5861C93.6583 20.6856 94.7611 20.3872 95.7637 20.2878C95.7637 22.5751 95.8639 24.8624 95.9642 27.1497C95.9642 28.343 96.4655 30.6303 95.5632 31.6248C95.1621 32.1221 97.067 31.9232 97.1672 31.9232C97.9693 31.8237 98.9718 31.5254 99.4731 30.9287C100.375 29.8348 99.9744 27.1497 99.8741 25.8569C99.7739 23.9673 99.7739 22.0778 99.7739 20.1883C100.877 19.9894 102.18 19.2933 101.979 18.3983ZM87.3423 18.2988C87.2421 17.1055 87.1418 15.8126 87.0416 14.6193C86.841 12.332 87.1418 9.05019 89.3474 7.65792C89.9489 7.26013 91.0517 7.35958 91.7535 7.26013C92.7561 7.06123 93.7586 6.86234 94.5606 7.45902C95.7637 8.25461 95.4629 11.1386 95.4629 12.332C95.4629 14.3209 95.6634 16.3099 95.7637 18.2988C95.1622 18.3983 94.6609 18.3983 94.0594 18.3983C91.7535 18.1994 89.4477 17.8016 87.3423 18.2988Z" fill="black"/>
<path d="M24.282 6.663C24.7833 6.56355 25.2845 6.4641 25.7858 6.16576C25.8861 6.06631 25.9863 5.96686 25.9863 5.96686C26.4876 5.66852 26.9889 5.17128 26.6881 4.5746C26.1868 3.48067 26.2871 2.38675 26.2871 1.19337C26.2871 0.198895 25.2845 0 24.4825 0C23.7807 0.0994477 22.2769 0.596686 22.2769 1.49172C22.2769 2.48619 22.1767 3.48067 22.3772 4.47515C22.3772 4.5746 22.2769 4.67404 22.2769 4.87294C22.1767 5.07183 22.2769 5.27073 22.3772 5.46962V5.56907C22.3772 5.66852 22.3772 5.76797 22.3772 5.86742C22.4774 6.06631 22.5777 6.26521 22.7782 6.36465C23.3797 6.663 23.881 6.663 24.282 6.663Z" fill="black"/>
</svg>
