<svg width="114" height="47" viewBox="0 0 114 47" fill="none" xmlns="http://www.w3.org/2000/svg">
<path d="M110.874 41.8438C115.297 42.7426 111.678 5.9916 110.975 3.5948C108.964 -2.9964 84.1358 1.4976 78.6072 1.89707C65.8411 2.89573 53.276 0.898399 40.8115 1.4976C34.5792 1.7972 5.72981 -0.300002 3.11628 3.49493C-1.90975 10.6853 0.402221 29.2606 1.80951 38.5482C-2.21131 39.3471 4.12148 42.7426 4.92565 43.4416C11.2584 45.6387 21.411 43.2419 28.0454 43.8411C43.5255 45.3391 60.0109 41.644 75.5916 42.8424C80.115 43.941 85.2415 43.8411 89.8655 44.0408C93.3837 49.6334 109.668 41.644 110.874 41.8438C111.377 41.9436 110.774 41.8438 110.874 41.8438Z" fill="black"/>
<path d="M26.236 24.3679C26.1355 21.8713 25.7334 19.2747 25.7334 16.7781C25.7334 14.6809 26.1355 12.5837 25.4319 10.5863C25.4319 10.3866 25.5324 10.1869 25.5324 9.88725C25.7334 8.88859 22.4162 9.38792 21.9136 10.2867C21.6121 10.5863 21.411 10.8859 21.5116 11.1855C21.5116 11.2854 21.6121 11.3853 21.6121 11.3853C21.009 14.3813 20.1043 17.3773 19.0991 20.2734C18.697 21.3719 18.2949 22.4705 17.8928 23.6689C17.2897 22.6702 16.7871 21.5717 16.2845 20.4731C14.9777 17.1775 13.7715 13.8819 12.1631 10.7861C12.3642 9.28805 9.14753 9.48779 8.44389 10.7861C7.63972 12.3839 7.74025 13.9818 8.04181 15.6795C8.34337 17.577 8.34337 19.4745 8.44389 21.4718C8.44389 25.2667 8.74545 28.9618 8.84597 32.7567C8.54441 33.1562 8.44389 33.5557 8.74545 34.055C8.94649 34.2547 9.04701 34.4545 9.24805 34.5543C10.1527 35.2534 12.5652 34.6542 12.5652 33.3559C12.5652 29.4611 12.2637 25.5663 12.1631 21.6715C12.1631 21.2721 12.1631 20.8726 12.1631 20.573C12.2637 20.6729 12.2637 20.8726 12.3642 20.9725C12.9673 22.4705 13.5704 23.9685 14.4751 25.3666C15.2793 26.7647 15.6814 28.2627 16.184 29.7607C15.9829 29.9605 15.8824 30.1602 15.9829 30.4598C15.9829 30.6595 16.0835 30.7594 16.184 30.7594C16.7871 31.2587 17.8928 31.059 18.5965 30.7594C18.898 30.6595 19.0991 30.5597 19.4006 30.3599C19.7022 30.1602 20.2048 29.7607 20.1043 29.2614C20.1043 29.1615 20.0038 29.0617 20.0038 28.9618C20.4058 27.7634 20.7074 26.4651 20.9084 25.2667C21.21 23.8686 21.6121 22.6702 22.1147 21.3719C22.1147 21.9711 22.2152 22.5703 22.2152 23.1695C22.4162 25.5663 22.2152 27.9631 22.2152 30.3599C22.2152 31.1589 22.3157 31.8579 22.4162 32.6569C22.5168 32.9565 22.7178 34.3546 22.7178 34.4545C22.1147 34.9538 22.3157 35.6529 23.1199 35.8526C24.0246 36.0523 25.1303 35.7527 25.7334 35.1535C26.8391 34.1549 26.3365 32.4571 26.035 31.1589C25.7334 29.1615 26.3365 26.6649 26.236 24.3679Z" fill="white"/>
<path d="M34.1778 25.067C34.0772 23.1695 33.474 21.3719 33.474 19.4745C33.474 17.2774 33.6751 15.0803 33.3735 12.9831C33.273 12.2841 29.5532 13.083 29.6537 13.9818C29.9553 15.9791 29.8548 17.9765 29.8548 19.9738C29.8548 21.8713 30.2569 23.6689 30.5585 25.5663C30.8601 27.5637 30.458 29.4611 30.6591 31.4585C30.7596 32.3573 31.3628 34.055 30.7596 34.8539C30.3575 35.3533 32.1671 35.1535 32.2676 35.1535C32.9714 35.0537 33.9767 34.7541 34.4794 34.1549C35.0826 33.3559 34.6804 31.8579 34.5799 30.9591C34.0772 29.0617 34.2783 26.9645 34.1778 25.067Z" fill="white"/>
<path d="M49.7578 21.8713C47.7474 19.2747 44.1287 21.1722 41.6157 20.3733C40.3089 19.9738 40.3089 18.1762 40.3089 17.1775C40.3089 15.7794 40.2084 14.581 40.0073 13.2827C39.9068 12.2841 40.0073 11.2854 40.711 10.4865C40.8115 10.3866 41.5151 10.1869 41.5151 10.1869C41.8167 10.087 42.1183 10.087 42.5203 10.087C44.0282 9.98712 46.9432 10.2867 46.3401 12.4838C46.0386 13.4825 49.7578 12.8833 50.0594 11.8846C51.2656 7.49045 43.1235 8.38925 40.8115 8.98845C38.7006 9.58765 36.3886 10.7861 36.2881 13.1829C36.1876 14.3813 36.5896 15.4798 36.5896 16.5783C36.6902 17.8766 36.3886 19.1749 36.8912 20.4731C37.8964 23.2694 42.1183 21.9711 44.3297 22.1709C47.9485 22.4705 46.9433 27.3639 46.9433 29.6609C46.9433 30.8593 48.049 32.9565 47.1443 33.9551C46.5412 34.5543 45.2344 34.6542 44.5308 34.6542C43.7266 34.7541 42.4198 34.9538 41.9172 34.2547C41.0125 32.9565 42.0177 30.6595 41.8167 29.1615C41.7162 28.2627 37.8964 29.0617 38.0974 30.1602C38.399 32.6569 36.7907 35.9525 40.4094 36.4518C42.7214 36.7514 45.3349 36.2521 47.5464 35.553C48.6521 35.1535 49.7578 34.6542 50.6625 33.8553C51.6677 32.9565 51.3662 31.6582 51.0646 30.4598C50.2604 27.4638 51.5672 24.2681 49.7578 21.8713Z" fill="white"/>
<path d="M66.3437 21.6715C66.2432 18.0763 65.6401 14.581 65.6401 10.9858C65.6401 9.08832 61.8203 9.78739 61.8203 11.2854C61.8203 14.6809 62.3229 18.0763 62.4234 21.4718C62.4234 21.5717 62.4234 21.5717 62.4234 21.6715C60.614 21.6715 58.7042 21.8713 56.7943 21.8713C56.9953 17.4771 56.1911 13.083 56.3922 8.78872C56.3922 8.18952 52.6729 8.68885 52.6729 9.78739C52.4719 13.9818 53.2761 18.2761 53.075 22.4705C52.9745 24.4678 52.874 26.4651 52.874 28.5623C52.874 29.561 53.075 30.6595 53.1755 31.6582C53.2761 32.557 53.6781 33.8553 53.3766 34.7541C53.1755 35.4531 56.7943 35.0537 57.0958 34.055C57.5984 32.3573 56.8948 30.2601 56.6937 28.5623C56.4927 26.9645 56.6937 25.2667 56.7943 23.569C58.7042 23.4691 60.7146 23.2694 62.6245 23.569C62.725 24.8673 62.8255 26.1655 62.926 27.4638C63.0265 28.5623 63.1271 29.6609 63.1271 30.7594C63.1271 31.7581 63.2276 33.1562 62.926 34.055C62.2224 36.0523 65.9416 35.8526 66.4442 34.3546C67.1479 32.557 66.9468 30.3599 66.8463 28.5623C66.7458 26.3653 66.3437 23.9685 66.3437 21.6715Z" fill="white"/>
<path d="M82.427 25.9658C81.5224 23.3693 80.1151 21.0723 79.0093 18.5757C80.0145 16.6782 80.9192 14.8806 81.8239 12.9831C82.6281 11.2854 83.2312 9.38792 84.739 8.18952C85.2416 7.79005 85.2416 7.39058 84.538 7.29072C83.7338 7.19085 82.5276 7.49045 81.9244 7.98979C80.5171 9.08832 79.6125 10.3866 78.9088 12.0843C78.0041 13.9818 77.0995 15.9791 76.0943 17.8766C75.9937 17.9765 75.9937 18.1762 75.8932 18.2761C75.3906 18.5757 75.1896 18.9751 75.2901 19.4745C74.4859 20.9725 73.7823 22.4705 72.8776 23.8686C72.576 18.5757 71.9729 13.3826 71.7719 8.08965C71.7719 6.89125 67.9521 7.59032 68.0526 9.08832C68.2536 15.5797 69.2589 22.071 69.2589 28.5623C68.9573 28.8619 69.0578 29.0617 69.3594 29.1615C69.3594 30.8593 69.2589 32.4571 69.1583 34.1549C68.7563 34.8539 69.5604 35.2534 70.1635 35.2534H70.2641C70.9677 35.2534 72.7771 34.9538 72.8776 33.9551C73.0786 31.9578 73.0786 29.9605 73.0786 27.9631C74.5864 26.3653 75.7927 24.5677 76.8984 22.6702C77.6021 24.0683 78.3057 25.4665 78.8083 26.9645C79.6125 29.561 81.0198 31.9578 81.8239 34.5543C82.3265 36.2521 86.0458 35.2534 85.5432 33.5557C84.6385 30.9591 83.3317 28.5623 82.427 25.9658Z" fill="white"/>
<path d="M104.843 21.5717C104.642 20.7727 103.536 20.7727 102.632 20.8726C102.632 20.573 102.632 20.2734 102.632 19.8739C102.531 17.3773 102.431 14.7807 102.23 12.2841C102.028 9.98712 100.722 9.08832 98.4097 9.18819C96.0978 9.28805 93.3837 9.68752 91.2728 10.4865C88.7598 11.4851 87.3525 13.2827 86.9504 15.8793C86.4478 18.7754 87.1515 21.7714 87.3525 24.6675C87.453 27.9631 87.453 31.3586 87.453 34.6542C87.453 35.1535 91.1723 34.6542 91.1723 33.6555C91.1723 31.059 91.1723 28.3626 91.1723 25.7661C91.1723 24.9671 91.1723 24.2681 91.0717 23.4691C92.3785 22.8699 94.59 23.4691 95.8967 23.569C97.0025 23.6689 98.0077 23.3693 99.0129 23.2694C99.0129 25.4665 99.1134 27.6635 99.2139 29.8606C99.2139 30.9591 99.7165 33.2561 98.9124 34.1549C98.5103 34.6542 100.32 34.4545 100.42 34.4545C101.224 34.3546 102.129 34.055 102.632 33.4558C103.536 32.3573 103.034 29.8606 103.034 28.5623C102.933 26.7647 102.933 24.9671 102.933 23.1695C103.838 23.0697 105.044 22.3706 104.843 21.5717ZM90.9712 21.3719C90.8707 20.1735 90.7702 18.9751 90.6697 17.7767C90.4686 15.5797 90.7702 12.4838 92.8811 11.1855C93.4842 10.7861 94.4894 10.8859 95.0926 10.7861C95.9973 10.5863 97.0025 10.3866 97.8066 10.9858C98.9124 11.7847 98.7113 14.4811 98.7113 15.5797C98.7113 17.4771 98.9124 19.3746 99.0129 21.2721C98.5103 21.3719 97.9071 21.3719 97.4045 21.3719C95.1931 21.2721 92.9816 20.9725 90.9712 21.3719Z" fill="white"/>
<path d="M30.9608 10.3866C31.4634 10.3866 31.9661 10.1869 32.3682 9.88725C32.4688 9.78739 32.5693 9.78739 32.5693 9.68752C33.072 9.38792 33.4741 8.88859 33.273 8.38925C32.7704 7.39059 32.8709 6.29205 32.8709 5.19352C32.8709 4.29472 31.9661 3.99512 31.1618 4.09498C30.4581 4.19485 29.0506 4.69418 29.0506 5.49312C29.0506 6.39192 28.9501 7.39059 29.1511 8.28939C29.1511 8.38925 29.0506 8.48912 29.0506 8.58899C28.9501 8.78872 29.0506 8.98845 29.1511 9.18819V9.28805C29.1511 9.38792 29.1511 9.48779 29.1511 9.58766C29.2517 9.78739 29.3522 9.98712 29.5533 10.087C30.056 10.3866 30.5586 10.3866 30.9608 10.3866Z" fill="white"/>
</svg>
