<svg width="25" height="20" viewBox="0 0 25 20" fill="none" xmlns="http://www.w3.org/2000/svg">
<path d="M24.6966 4.24243C24.4938 3.83838 23.784 3.93939 23.2771 3.83838H22.1617C22.2631 3.43434 22.4659 3.23232 22.6687 2.82828C22.7701 2.42424 22.9729 2.12121 22.8715 1.51515C22.9729 1.31313 23.0743 1.11111 23.1757 0.909089C23.277 0.808079 23.3784 0.404041 23.2771 0.202021C23.1757 7.67636e-07 22.9729 0 22.6687 0C22.5673 0 22.4659 0.101009 22.4659 0.101009C22.0603 0.505049 21.6547 1.11111 21.1478 1.51515H21.0464C20.945 1.51515 21.0464 1.51515 20.945 1.61616C20.8436 1.71717 20.6408 1.81818 20.5394 1.81818C20.2352 2.0202 20.0324 2.22222 19.6269 2.32323C19.1199 2.12121 18.4102 2.0202 17.7004 1.91919C16.4837 2.0202 15.3683 2.12121 14.6586 2.62626C13.746 2.92929 13.1377 3.63636 12.5293 4.24243C12.5293 4.54546 12.2251 4.64646 12.1237 4.94949C12.1237 4.94949 12.1237 5.05051 12.0223 5.05051C12.0223 5.25253 11.921 5.35354 11.921 5.55556C11.921 5.65657 12.1237 5.9596 11.921 6.06061C11.1098 5.9596 10.4 5.45455 9.79169 5.05051C9.08193 4.64646 8.27078 4.44444 7.66242 3.93939C6.95267 3.63636 6.3443 3.13131 5.83733 2.62626C5.63454 2.32323 5.33037 2.12121 5.12758 1.71717C4.722 1.51515 4.92479 0.80808 4.41782 0.80808C4.11364 0.80808 4.11364 1.0101 4.01225 1.21212C3.91085 1.41414 3.60667 1.41414 3.60667 1.71717C3.60667 1.71717 3.60667 1.81818 3.50528 1.81818C3.30249 2.92929 2.99831 3.83838 2.99831 5.15151C3.0997 5.55555 3.30249 5.85858 3.60667 6.16162C3.2011 6.26263 2.89692 6.36364 2.69413 6.66667C2.59274 7.77778 3.0997 8.28283 3.40389 8.9899C3.50528 9.39394 3.80946 9.69697 4.01225 10C4.01225 10.202 4.21503 10.303 4.31643 10.404C4.31643 10.5051 4.41782 10.505 4.41782 10.6061C4.41782 10.7071 4.722 10.8081 4.51921 10.8081C4.11364 10.9091 3.50528 10.9091 3.2011 11.2121C3.0997 11.5152 3.0997 12.0202 3.2011 12.3232C3.2011 12.5253 3.50528 12.6263 3.50528 12.8283C4.01225 13.2323 4.62061 13.5354 5.12758 13.9394C5.73594 14.1414 6.3443 14.2424 7.05406 14.3434C6.95266 14.6465 6.74988 14.9495 6.4457 15.0505C5.63455 15.4545 4.62061 15.5556 3.70807 15.7576C3.0997 15.7576 2.69413 15.9596 2.08577 15.9596C1.78159 16.0606 1.17322 16.0606 0.970435 16.1616C0.869042 16.2626 0.869041 16.2626 0.767647 16.3636C0.666254 16.7677 0.869043 17.0707 1.17322 17.2727C1.17322 17.5758 1.37601 17.5758 1.5788 17.6768C1.68019 17.8788 1.88298 17.9798 1.98437 18.0808C2.49134 18.5859 3.30249 18.8889 3.91085 19.1919C4.722 19.3939 5.53315 19.596 6.4457 19.697C7.35824 19.798 8.37218 19.798 9.28472 19.899H10.2987C10.8056 20 11.5154 20 12.2251 20C12.3265 19.899 12.5293 19.899 12.7321 19.899C13.2391 19.596 13.9488 19.4949 14.3544 19.1919C14.9628 18.9899 15.3683 18.5859 15.9767 18.2828C16.8892 17.4748 17.9032 16.9697 18.5115 15.8586C18.7143 15.6566 18.9171 15.4545 18.9171 15.1515C19.2213 14.9495 19.3227 14.6465 19.5255 14.4444C19.9311 14.0404 20.2352 13.5354 20.5394 13.0303C20.8436 12.5253 21.1478 11.9192 21.452 11.4141C21.452 11.0101 21.7561 10.9091 21.7561 10.505C21.9589 10.303 21.9589 9.79798 22.1617 9.59596C22.1617 9.29293 22.1617 9.19192 22.2631 8.9899C22.2631 7.67677 22.2631 6.56566 21.9589 5.55556C22.5673 5.35354 23.1757 5.25252 23.5812 4.94949C24.3924 5.25252 24.8993 4.84849 24.6966 4.24243ZM21.2492 8.28283C21.0464 9.19192 20.6408 9.69697 20.2352 10.303C20.3366 10.7071 20.1338 10.8081 20.1338 11.2121C19.9311 11.5152 19.8297 11.9192 19.7283 12.2222C19.5255 12.5253 19.4241 12.8283 19.2213 13.1313C18.8157 13.6364 18.4101 14.2424 18.0046 14.7475C17.599 15.3535 17.092 15.7576 16.6865 16.2626C16.2809 16.7677 15.7739 17.1717 15.2669 17.5758C14.76 17.7778 14.3544 17.9798 13.9488 18.2828C13.746 18.3838 13.4419 18.4848 13.2391 18.5859C13.0363 18.6869 12.7321 18.6869 12.5293 18.8889C11.414 18.9899 10.1973 19.0909 8.87914 18.9899C7.86521 18.8889 6.74987 18.7879 5.83733 18.5859C4.92479 18.3838 4.31643 17.8788 3.50528 17.5758C3.70807 17.3737 4.11364 17.3737 4.51921 17.3737C4.51921 17.1717 4.92479 17.3737 4.92479 17.2727C5.22897 17.3737 5.22897 17.1717 5.43176 17.1717C6.04012 16.9697 6.64848 16.8687 7.15545 16.5657C7.45963 16.4646 7.56102 16.1616 7.86521 15.9596C7.86521 15.7576 7.9666 15.6566 8.06799 15.5556C8.06799 15.2525 8.27078 15.1515 8.16939 14.7475C8.27078 14.5455 8.47357 14.4444 8.47357 14.0404C8.37218 13.9394 8.37218 13.7374 8.16939 13.6364C8.16939 13.4343 7.76381 13.5354 7.76381 13.4343C7.45963 13.4343 7.35824 13.4343 7.15545 13.3333C6.95267 13.3333 6.64848 13.4343 6.64848 13.2323C5.83733 13.2323 5.33036 12.8283 4.722 12.5253C5.12758 12.2222 5.73594 12.1212 6.04012 11.8182C6.54709 11.7172 7.15545 11.7172 7.15545 11.1111C7.15545 10.404 6.3443 10.404 5.83733 10.303C5.02618 9.59596 4.62061 8.58586 4.01225 7.77778C4.21503 7.57576 4.62061 7.57576 4.722 7.37374C5.22897 7.47475 5.22897 7.07071 5.43176 6.86869C5.43176 6.36364 5.12758 6.26263 4.82339 6.06061C4.51921 5.85859 4.31643 5.55556 4.11364 5.35353C4.11364 4.54545 4.11364 3.63636 4.21503 2.92929C4.31643 2.92929 4.31643 2.92929 4.31643 3.0303C4.51921 3.43434 4.92479 3.83838 5.12758 4.24243C5.63455 4.64647 6.04012 5.15151 6.74988 5.35353C7.25684 5.75758 7.86521 5.9596 8.37217 6.36364C8.98054 6.66667 9.5889 6.9697 10.0959 7.27273C10.8056 7.47475 11.2112 7.9798 12.1237 7.87879C12.3265 7.77778 12.5293 7.67677 12.7321 7.57576C13.0363 7.07071 12.6307 6.46464 12.8335 5.95959C13.1377 5.25252 13.6446 4.94949 14.1516 4.44444C14.4558 4.24242 14.76 4.14141 14.9628 3.93939C15.2669 3.83838 15.6725 3.73737 15.9767 3.53535C16.3823 3.53535 16.6865 3.43434 16.9906 3.43434H18.3088C18.5115 3.53535 18.8157 3.53535 19.0185 3.53535C19.2213 3.63636 19.4241 3.83838 19.7283 3.93939C20.5394 4.64646 21.0464 5.65656 21.1478 6.9697C21.1478 7.27273 21.2492 7.67677 21.2492 8.28283ZM21.5534 2.62626C21.452 2.92929 21.3506 3.33333 20.945 3.43434C20.945 3.33333 20.8436 3.33333 20.8436 3.23232C20.8436 3.0303 21.0464 3.0303 21.1478 2.92929C21.2492 2.82828 21.3506 2.62626 21.5534 2.62626C21.6547 2.62626 21.5534 2.52525 21.5534 2.62626ZM15.9767 5.65656C16.1795 5.75757 16.2809 5.9596 16.4837 6.06061C16.5851 6.26263 16.7878 6.36363 17.092 6.46464C17.092 6.26262 17.3962 6.46465 17.4976 6.26263C17.7004 6.26263 17.7004 6.0606 17.8018 5.95959C17.8018 5.45454 17.7004 4.94949 17.3962 4.64646C16.6865 4.14141 15.6725 4.64646 15.9767 5.65656Z" fill="black"/>
</svg>
