<svg width="23" height="22" viewBox="0 0 23 22" fill="none" xmlns="http://www.w3.org/2000/svg">
<path d="M22.7413 12.5849C22.7413 10.2075 22.4393 7.83019 22.4393 5.55189C22.4393 4.75944 22.3387 4.06604 22.238 3.27359C22.1374 2.97642 22.1374 2.58019 22.0367 2.18396C21.7348 1.98585 21.8354 1.58962 21.5335 1.39151C21.1309 1.1934 20.3256 1.29245 19.8224 1.1934C19.1178 1.1934 18.5139 1.09434 17.91 0.995283C15.9977 0.896226 13.884 0.896228 11.871 0.896228C9.85796 0.896228 7.84495 0.79717 6.13388 0.5H3.91956C3.81891 0.5 3.81891 0.599059 3.71826 0.599059C3.11435 0.599059 2.6111 0.797171 2.10785 0.896228C1.90655 0.995284 1.70524 1.09434 1.40329 1.1934C1.30264 1.39151 0.900034 1.29245 0.799383 1.58962C0.598081 1.78774 1.00068 2.08491 0.799383 2.18396V3.07547C1.00068 3.17453 0.799385 3.66981 0.900036 3.86793V4.85849C0.900036 6.14623 1.00069 7.23585 1.00069 8.52359C1.50394 11.2972 1.40329 14.9623 1.10134 17.8349C1.30264 18.4292 1.50394 18.9245 1.60459 19.5189C1.90655 20.0142 1.90654 20.6085 2.30915 21.0047C2.8124 21.2028 3.51696 21.2028 4.22151 21.2028C4.62412 21.3019 4.92607 21.5 5.32867 21.5C8.14689 21.3019 10.8645 21.3019 13.7833 21.3019C16.5009 21.5 19.6211 21.5 22.1374 21.1038C22.3387 21.0047 22.238 20.6085 22.3387 20.3113C22.238 19.9151 22.54 19.9151 22.54 19.5189C22.7413 17.4387 22.7413 15.0613 22.7413 12.5849ZM9.65666 6.4434C10.4619 6.24528 11.1664 6.14623 12.0723 6.14623C12.7768 6.24528 13.3807 6.4434 13.9846 6.64151C14.0853 6.83962 13.7833 7.13679 14.1859 7.33491V7.33491C14.2866 7.33491 14.2866 7.3349 14.3872 7.43396C14.7899 7.43396 15.1925 7.63208 15.4944 7.83019C15.9977 7.92925 15.9977 8.32547 16.6016 8.22642C16.5009 8.42453 16.5009 8.7217 16.5009 9.01887C16.8029 10.2075 17.0042 11.7925 16.8029 13.2783C16.6016 13.4764 16.6016 13.6745 16.5009 13.9717C16.199 14.2689 15.9977 14.7642 15.6957 15.0613C15.5951 15.2594 15.3938 15.4575 15.1925 15.5566C15.0918 15.7547 14.9912 16.0519 14.6892 16.0519C14.3873 16.25 14.0853 16.0519 13.884 15.9528C13.4814 16.1509 12.9781 16.25 12.6762 16.5472C11.871 16.4481 11.0658 16.3491 10.2606 16.25C10.0593 16.1509 9.75731 15.9528 9.45536 15.9528C9.25406 15.7547 8.9521 15.5566 8.65015 15.4575C8.5495 15.3585 8.3482 15.3585 8.1469 15.2594C7.9456 15.2594 7.9456 15.0613 7.64364 15.0613C7.54299 14.6651 7.24104 14.467 7.14039 13.9717C6.93909 13.6745 6.83844 13.1792 6.63713 12.783C6.63713 11.3962 6.73778 10.1085 7.03974 9.01887C7.34169 8.42453 7.84495 7.92925 8.1469 7.33491C8.3482 7.33491 8.5495 7.23585 8.5495 7.03774C8.85145 7.13679 8.9521 6.93868 9.25406 6.93868C9.45536 6.93868 9.45536 6.64151 9.65666 6.4434ZM7.9456 3.76887C7.84494 3.4717 7.84494 3.07547 7.84494 2.67925C7.84494 2.38208 8.1469 2.38208 8.1469 2.18396C8.1469 2.08491 8.04625 2.08491 7.9456 2.08491C8.04625 1.98585 8.65015 1.98585 8.7508 2.08491C8.85145 2.58019 8.3482 2.58019 8.24755 2.7783C8.24755 2.97642 8.5495 2.7783 8.7508 2.87736C8.7508 3.76887 8.65015 4.36321 8.7508 5.05661H8.24755C8.24755 5.25472 8.44885 5.25472 8.7508 5.25472C8.65015 5.55189 8.85145 5.65094 8.85145 5.84906C8.65015 6.04717 8.1469 5.84906 7.74429 5.94811C7.74429 5.35377 8.04625 4.56132 7.9456 3.76887ZM7.24104 2.18396C7.34169 2.18396 7.34169 2.18396 7.44234 2.28302C7.64364 2.58019 7.44234 2.97642 7.34169 3.17453C7.14039 2.97642 7.34169 2.48113 7.24104 2.18396ZM7.44234 3.96698C7.34169 3.86792 7.24104 3.76887 7.24104 3.4717C7.44234 3.57075 7.44234 3.76887 7.44234 3.96698ZM7.44234 5.35377C7.34169 5.45283 7.34169 5.35377 7.34169 5.15566C7.44234 5.0566 7.44234 5.25472 7.44234 5.35377ZM7.24104 5.55189C7.44234 5.55189 7.34169 5.75 7.44234 5.75C7.44234 5.94812 7.14039 5.94811 7.03974 5.84906C7.14039 5.75 7.24104 5.65094 7.24104 5.55189ZM4.92607 4.36321C4.92607 4.26415 4.92607 4.16509 4.82542 4.16509C4.72477 3.4717 4.92607 2.7783 4.82542 2.18396C5.12737 1.98585 5.63063 2.18396 5.93258 2.08491V3.17453C5.83193 3.27359 5.73127 3.27359 5.52997 3.27359C5.42932 3.57076 5.83193 3.37264 5.93258 3.57076C5.93258 4.46227 5.83193 5.35377 6.13388 5.94811C5.52998 5.84906 5.22802 6.04717 4.72477 6.04717C4.82542 5.45283 4.72477 4.66038 5.22802 4.46226C5.22802 4.36321 4.92607 4.46226 4.92607 4.36321ZM4.42282 4.36321C4.22151 4.36321 4.22151 3.86793 4.32216 3.76887C4.62411 3.76887 4.52347 4.26415 4.42282 4.36321ZM4.22151 5.35377C4.32216 5.0566 4.22151 5.0566 4.32216 4.66038C4.52346 4.66038 4.52347 5.45283 4.22151 5.35377ZM4.42282 3.27359C4.12086 3.37264 4.12086 2.97642 4.22151 2.87736C4.52347 2.87736 4.62412 3.17453 4.42282 3.27359ZM4.42282 2.18396C4.42282 2.38208 4.32216 2.38208 4.32216 2.48113C4.12086 2.48113 4.22151 2.28302 4.12086 2.28302C4.22151 2.18396 4.32216 2.18396 4.42282 2.18396ZM4.22151 5.84906C4.32216 5.84906 4.32217 6.14623 4.12086 6.04717C4.22151 6.04717 4.22151 5.94811 4.22151 5.84906ZM3.51696 2.18396C3.51696 2.48113 3.11436 2.48113 3.11436 2.18396H3.51696ZM2.51045 2.28302C2.51045 2.48113 2.2085 2.48113 2.10785 2.67925C1.90655 2.48113 2.2085 2.18396 2.51045 2.28302ZM2.10785 2.97641C2.30915 2.7783 2.6111 2.58019 2.8124 2.38208C2.8124 2.28302 2.91305 2.28302 2.91305 2.18396H3.11436C3.21501 2.58019 2.8124 2.48113 2.8124 2.67925C2.8124 2.7783 2.71175 2.7783 2.71175 2.87736C2.71175 3.17453 2.8124 3.4717 2.8124 3.86793C2.51045 3.86793 2.51045 4.1651 2.2085 4.06604C2.2085 3.66981 2.0072 3.4717 2.10785 2.97641ZM2.2085 6.24528V4.66038C2.4098 4.46226 2.6111 4.26415 2.8124 4.16509C3.11435 4.66038 3.0137 5.55189 3.31565 6.04717C2.91305 6.14623 2.51045 6.14623 2.2085 6.24528ZM20.5269 17.2406C20.4263 18.2311 20.3257 19.2217 20.1244 20.0142C17.2055 20.1132 14.0853 20.0141 11.1664 20.2123C10.9651 20.2123 10.8645 20.2123 10.9651 20.0142C10.6632 20.0142 10.6632 20.2123 10.4619 20.2123C10.6632 19.9151 10.8645 19.3207 10.6632 18.9245C9.85796 18.9245 9.85796 19.717 9.55601 20.2123C8.85145 20.1132 8.44885 20.3113 7.74429 20.3113C7.94559 19.6179 8.44885 19.3208 8.65015 18.6274C8.24755 18.1321 7.64364 18.7264 7.44234 19.1226C7.24104 19.6179 6.83844 19.9151 6.63713 20.4104H5.63063C5.83193 19.9151 6.13388 19.5189 6.43583 19.0236C6.63713 18.5283 7.03974 18.3302 7.14039 17.6368C6.93909 17.3396 6.73778 17.6368 6.43583 17.6368C6.33518 17.8349 6.13388 17.934 6.03323 18.1321C5.83193 18.5283 5.52997 18.8255 5.32867 19.2217C5.12737 19.4198 5.02672 19.2217 4.82542 19.4198C4.42281 19.717 4.22151 20.1132 3.81891 20.4104C3.61761 20.3113 3.81891 20.0142 4.02021 20.0142C4.02021 19.816 3.91956 19.5189 4.12086 19.4198C4.22151 19.0236 4.32216 18.8255 4.52346 18.5283C4.62412 17.8349 5.02672 17.3396 5.22802 16.6462C4.62412 16.7453 4.52347 17.2406 4.22151 17.6368C4.02021 18.033 3.71826 18.4292 3.51696 18.9245C3.31565 18.8255 3.51696 18.3302 3.41631 18.1321C3.51696 17.5377 3.71826 17.0424 3.81891 16.4481C3.91956 16.25 4.02021 15.9528 4.02021 15.6557C4.22151 15.4575 4.02021 15.0613 3.91956 14.8632C3.71826 14.8632 3.51696 14.9623 3.41631 15.1604C3.21501 15.1604 3.21501 15.6557 3.11436 15.4575C3.11436 12.8821 2.6111 10.7028 2.6111 8.12736C2.6111 7.83019 2.4098 7.73113 2.4098 7.43396C4.02021 7.43396 5.52997 7.53302 7.24104 7.63207C7.14039 7.73113 7.03974 7.92925 6.93909 8.0283C6.83844 8.12736 6.73778 8.22642 6.53648 8.32547C5.93258 10.0094 5.52997 12.2877 5.93258 14.467C6.13388 15.0613 6.53648 15.4575 6.93909 15.8538C7.84494 16.3491 8.5495 16.9434 9.45536 17.5377C11.1664 17.934 13.2801 17.934 14.9912 17.5377C15.1925 17.4387 15.4944 17.3396 15.6957 17.1415C17.1048 15.9528 18.5139 14.6651 18.7152 12.2877V10.9009C18.5139 9.31604 18.0107 8.0283 17.0042 7.33491C17.3061 7.13679 18.1113 7.3349 18.7152 7.43396C18.9165 7.43396 19.1178 7.43396 19.4198 7.43396C19.8224 7.43396 20.3256 7.3349 20.8289 7.43396C20.9296 7.63207 20.9296 7.92925 21.0302 8.22642C20.9296 9.91038 20.8289 11.4953 20.8289 13.2783C20.9296 13.7736 20.9296 14.2689 21.0302 14.6651C20.8289 15.4575 20.7282 16.3491 20.5269 17.2406ZM20.9296 6.14623C20.3256 6.04717 19.7217 5.84906 19.0172 5.75C19.1178 5.45283 19.8224 5.75 20.0237 5.55189C20.4263 5.35377 20.3256 4.66038 20.3256 4.06604C20.3256 3.76887 20.4263 3.4717 20.4263 2.97641C20.0237 1.98585 18.6146 2.58019 17.5074 2.48113C17.3061 3.17453 17.0042 4.26415 17.2055 5.15566C17.4068 5.65094 18.212 5.45283 18.7152 5.65094C18.6146 5.94811 18.0107 5.75 17.7087 5.75C17.4068 5.65095 17.0042 5.65094 16.7022 5.55189C14.3873 5.65094 12.3742 5.55189 10.1599 5.75C10.2606 4.56132 10.2606 3.27359 10.0593 2.18396H13.1794C12.8775 2.58019 12.2736 2.67924 11.871 2.97641C11.4684 3.17453 10.9651 3.4717 10.7638 3.86793C10.9651 3.96698 11.2671 3.66981 11.569 3.4717C11.9716 3.37264 12.0723 3.07547 12.3742 2.97641C12.7768 2.58019 13.4814 2.38208 14.0853 2.08491C14.4879 2.08491 14.7899 2.08491 15.0918 2.18396C16.4003 2.18396 17.6081 2.28302 18.9165 2.28302C19.5204 2.38208 20.4263 2.38208 20.9296 2.58019C21.0302 2.87736 21.1309 3.17453 21.2315 3.4717C21.1309 4.46226 20.9296 5.25472 20.9296 6.14623ZM14.9912 2.48113C15.0918 2.38208 14.9912 2.38208 14.9912 2.48113V2.48113ZM14.9912 2.48113C14.4879 2.67924 13.9846 2.7783 13.582 3.17453C14.0853 2.97642 14.6892 2.87736 14.9912 2.48113ZM16.0983 3.07547C16.199 2.97642 16.0983 2.97642 16.0983 3.07547V3.07547ZM14.2866 3.96698C14.9912 3.76887 15.4944 3.37264 15.9977 3.07547C15.5951 3.07547 15.3938 3.37264 14.9912 3.4717C14.8905 3.66981 14.4879 3.66981 14.2866 3.96698ZM13.582 3.17453C13.4814 3.17453 13.6827 3.27359 13.582 3.17453V3.17453ZM12.9781 3.76887C13.0788 3.66981 12.9781 3.66981 12.9781 3.76887V3.76887ZM12.8775 3.86793C12.9781 3.86793 12.9781 3.76887 12.8775 3.86793C12.8775 3.76887 12.8775 3.76887 12.8775 3.86793ZM12.7768 3.86793C12.8775 3.86793 12.8775 3.86793 12.7768 3.86793C12.7768 3.76887 12.7768 3.86793 12.7768 3.86793ZM11.9716 4.46226C12.2736 4.36321 12.5755 4.1651 12.7768 3.86793C12.4749 4.06604 12.1729 4.26415 11.9716 4.46226ZM14.2866 5.45283C14.7899 5.45283 14.9912 5.0566 15.4944 4.95755C15.7964 4.66038 16.2996 4.56132 16.5009 4.16509C15.897 4.16509 15.6957 4.56132 15.2931 4.66038C14.9912 5.0566 14.4879 5.15566 14.2866 5.45283ZM11.9716 4.46226C11.6697 4.46226 11.9716 4.75943 11.9716 4.46226V4.46226ZM11.3677 4.85849C11.4684 4.85849 11.569 4.85849 11.3677 4.85849C11.4684 4.75943 11.3677 4.85849 11.3677 4.85849ZM14.2866 5.45283C14.0853 5.55189 14.2866 5.55189 14.2866 5.45283V5.45283ZM13.0788 7.23585C12.8775 7.03774 12.3742 7.03774 12.0723 6.83962C11.3677 6.83962 10.8645 6.93868 10.3612 7.03774C10.0593 7.23585 9.75731 7.33491 9.45536 7.53302C9.15341 7.73113 9.05276 7.92925 8.65015 8.0283C8.44885 8.22642 8.24755 8.52358 7.9456 8.62264C7.9456 8.82075 7.74429 8.91981 7.64364 9.01887C7.54299 9.11793 7.54299 9.31604 7.44234 9.41509C7.44234 9.51415 7.44234 9.71227 7.34169 9.71227C7.44234 11.1981 7.64364 12.5849 8.04624 13.8726C8.3482 14.467 9.05275 14.6651 9.45536 15.1604C10.0593 15.4575 10.7638 15.5566 11.569 15.6557C11.871 15.5566 12.1729 15.5566 12.4749 15.5566C13.6827 15.3585 14.5886 14.8632 15.2931 14.1698C15.3938 13.8726 15.5951 13.6745 15.7964 13.4764C15.4944 12.783 16.0983 12.3868 16.2996 11.8915C16.2996 10.6038 16.0983 9.41509 15.6957 8.52359C15.3938 7.92925 14.7899 7.73113 14.2866 7.43396C14.1859 7.43396 14.0853 7.43396 14.0853 7.33491C13.884 7.23585 13.3807 7.13679 13.0788 7.23585ZM9.65666 11.5943C9.55601 11.4953 9.55601 11.3962 9.45536 11.1981C9.75731 11.0991 9.65666 11.3962 9.65666 11.5943ZM9.75731 11.8915C9.75731 11.7925 9.85796 11.8915 9.75731 11.8915C9.75731 12.0896 9.75731 11.9906 9.75731 11.8915ZM10.1599 9.81132C10.1599 9.71226 10.2606 9.81132 10.1599 9.81132C10.2606 9.91038 10.1599 9.91038 10.1599 9.81132ZM11.871 7.73113C11.6697 8.0283 11.871 8.32547 11.9716 8.52359C11.6697 8.52359 11.3677 7.73113 11.871 7.73113ZM12.2736 11.5943C12.1729 11.5943 12.2736 11.5943 12.2736 11.5943C12.3742 11.5943 12.2736 11.6934 12.2736 11.5943ZM12.9781 14.467C12.9781 14.3679 13.0788 14.467 13.1794 14.467C13.1794 14.566 12.9781 14.566 12.9781 14.467ZM15.1925 11.9906C14.9912 11.8915 15.0918 12.1887 14.7899 12.1887C14.8905 11.9906 14.8905 11.8915 14.9912 11.6934C15.1925 11.6934 15.2931 11.7924 15.1925 11.9906ZM14.0853 8.22642C14.2866 8.32547 14.4879 8.42453 14.6892 8.62264C14.7899 8.82075 14.8905 9.01887 15.0918 9.11792C15.1925 9.91038 15.2931 10.6038 15.2931 11.4953C14.9912 11.5943 14.8905 11.7925 14.5886 11.8915C13.7833 11.8915 13.1794 11.6934 12.6762 11.3962C12.4749 11.0991 12.2736 10.9009 12.1729 10.6038V9.51415C12.3742 9.31604 12.4749 9.11792 12.6762 8.91981C12.8775 8.82075 13.1794 8.7217 13.1794 8.32547C13.1794 8.22642 13.0788 8.22641 13.0788 8.12736C13.2801 8.12736 13.2801 8.32547 13.4814 8.32547C13.6827 8.32547 13.7833 8.12736 14.0853 8.22642Z" fill="black"/>
</svg>
