<svg width="16" height="30" viewBox="0 0 16 30" fill="none" xmlns="http://www.w3.org/2000/svg">
<path d="M12.4448 5.94251C13.4437 5.94251 14.4427 5.94251 15.1419 5.63003C15.5415 4.79672 15.7413 3.65093 15.7413 2.50514C15.5415 2.50514 15.6414 2.19265 15.5415 2.08849C15.5415 1.88016 15.2418 1.88016 15.2418 1.67183C14.9421 1.46351 14.7423 1.25518 14.5426 1.04686C13.8433 0.83853 13.144 0.734367 12.3449 0.526042C11.5457 0.526042 10.4469 0.421877 9.74767 0.630203C7.15044 0.630203 5.75193 1.776 4.45331 3.13011C4.45331 3.23428 4.45331 3.33844 4.35342 3.33844C3.75406 5.00505 4.25353 7.0883 4.15363 9.17156C4.25353 9.58821 4.25352 10.2132 4.35342 10.6298C3.35448 10.9423 2.15576 11.0465 0.957042 11.1507C0.657362 11.4631 0.757255 12.2965 0.757255 12.9214C0.857148 13.5464 1.05694 14.0672 1.15683 14.588C1.35662 14.7964 1.75619 15.0047 1.95598 15.1089C2.05587 15.1089 2.05587 15.213 2.05587 15.213C2.55534 15.5255 3.55427 15.213 4.35342 15.3172C4.25352 17.4004 4.6531 19.3795 4.35342 21.2545C4.35342 21.567 4.6531 21.6711 4.55321 22.0878C4.55321 23.1294 4.45331 24.171 4.75299 24.9002C4.45331 25.421 4.25352 25.9418 4.35342 26.7751C4.45331 26.7751 4.45331 26.9834 4.45331 27.0876C4.35342 27.6084 5.05267 27.2959 4.95278 27.8167C5.15257 28.3375 4.55321 28.025 4.55321 28.3375V29.275C5.05267 29.5875 6.05161 29.4833 6.85075 29.4833C7.74979 29.0667 9.04841 28.9625 9.64777 28.2334C10.1472 28.4417 10.5468 28.2334 10.8465 28.0251C10.8465 27.7126 11.1462 27.7126 11.0463 27.2959C11.0463 26.9834 10.8465 26.7751 10.9464 26.3584V23.3377C10.7466 20.942 10.9464 18.2337 10.6467 15.838C11.5457 15.7338 12.5447 15.7338 13.2439 15.4213C13.6435 14.9005 13.6435 14.1714 13.7434 13.4422C13.9432 13.2339 13.9432 12.8173 13.9432 12.4006C14.143 12.1923 14.0431 11.6715 14.0431 11.2548C13.9432 10.6298 13.8433 9.90071 13.2439 9.79654C12.3449 9.58822 11.2461 10.4215 10.2471 10.109C10.2471 8.96324 9.94745 7.71328 10.2471 6.56749C11.0463 6.35916 11.7455 6.15084 12.4448 5.94251ZM8.64884 10.9423C8.74873 11.2548 8.94852 11.4631 9.04841 11.6715C9.14831 11.6715 9.2482 11.6715 9.2482 11.7756C10.4469 11.8798 11.4459 11.6715 12.3449 11.4631C12.3449 12.5048 12.0452 13.2339 11.8454 14.0672C11.1462 14.0672 10.347 14.3797 9.84756 14.2755C9.54788 14.4839 9.44798 14.7964 9.2482 15.0047C9.2482 15.4213 9.34809 15.5255 9.2482 15.838C9.04841 15.9421 9.14831 16.463 9.04841 16.6713V18.2337C9.14831 18.5462 8.94851 18.5462 8.94851 18.7546V22.4003C8.84862 22.7127 9.04841 22.7127 9.04841 22.9211V26.046C9.14831 26.3584 8.94852 26.8793 9.14831 26.9834C9.04841 27.4001 8.74873 26.9834 8.34916 27.0876C7.84969 27.1918 7.45011 27.5042 6.85075 27.5042C6.95065 27.0876 7.15044 26.8793 7.15044 26.3584C7.15044 25.9418 6.75086 26.046 6.65097 25.8376C6.85076 25.2127 7.25033 24.6918 7.35022 23.9627C7.55001 23.4419 8.04948 22.6086 7.6499 22.0878C7.15044 21.9836 7.15043 22.4003 6.85075 22.5044C6.85075 22.6086 6.85076 22.7127 6.75086 22.7127C6.75086 22.8169 6.75086 22.9211 6.65097 22.9211C6.45118 23.0252 6.65097 23.0252 6.65097 22.9211C6.65097 22.8169 6.65097 22.7127 6.75086 22.7127C6.75086 22.6086 6.75086 22.5044 6.85075 22.5044V22.1919C7.25033 21.567 7.55001 20.942 7.6499 20.1087C7.84969 19.7962 7.94958 19.3795 8.04948 19.067C8.24926 18.7546 8.34916 18.1296 8.14937 17.8171C7.6499 17.8171 7.35022 18.1296 7.25033 18.5462C6.95065 18.3379 7.45011 18.1296 7.35022 17.8171C7.45011 17.6088 7.55001 17.1921 7.6499 16.9838C7.84969 16.5671 8.24926 15.6297 7.6499 15.3172C7.25033 15.3172 7.05054 15.5255 6.95065 15.838C6.75086 16.0463 6.55108 16.2546 6.45118 16.5671C6.05161 16.463 6.35129 15.838 6.25139 15.4213C6.1515 14.9005 6.35129 14.4839 6.25139 14.1714C5.65203 13.3381 4.25352 14.0672 3.0548 13.8589C2.95491 13.5464 2.85502 12.8173 2.95491 12.6089C3.95385 12.5048 5.45225 12.8173 6.1515 12.4006C6.1515 12.2965 6.1515 12.1923 6.25139 12.1923C6.35129 11.4631 5.95171 11.1507 5.75193 10.734C5.95171 9.9007 5.75193 8.65075 5.85182 7.60912C6.05161 7.50496 6.1515 7.19247 6.35129 6.98414C6.45118 5.94251 7.05054 5.4217 7.05054 4.38007C6.75086 4.38007 6.45118 4.27591 6.45118 4.5884C6.1515 4.48423 6.05161 5.10921 5.95171 4.79672C5.85182 4.2759 6.1515 4.17174 6.25139 3.75509C6.85075 3.33844 7.45012 2.92179 8.14937 2.50514C9.84756 2.29681 12.7445 2.08848 14.2429 2.71346C14.3428 3.33844 13.9432 3.65093 14.0431 4.27591H12.5447C11.4459 4.48423 10.5468 5.00505 9.54788 5.31753C9.34809 5.4217 9.2482 5.63002 9.04841 5.73419C9.04841 6.15084 8.84862 6.35916 8.74873 6.77582C8.44905 8.2341 8.64884 9.48405 8.64884 10.9423Z" fill="black"/>
</svg>
