<svg width="67" height="100" viewBox="0 0 67 100" fill="none" xmlns="http://www.w3.org/2000/svg">
<path d="M57.171 9.1586C44.0656 -3.05287 22.9344 -3.05287 9.82904 9.1586C-3.27635 21.3701 -3.27635 41.1268 9.82904 53.3383C9.82904 53.3383 33.5 74.9814 33.5 100C33.5 74.9814 57.171 53.3383 57.171 53.3383C70.2763 41.2261 70.2763 21.3701 57.171 9.1586Z" fill="white"/>
<path d="M47.7233 45.1977C47.1137 41.9215 47.8249 38.3474 47.7233 34.9719C47.6217 31.1992 47.0121 27.5259 47.0121 23.8525C47.0121 20.8741 47.5201 17.6971 46.5042 14.818C46.6058 14.5201 46.6058 14.123 46.7074 13.8252C47.0121 12.336 42.0341 13.1302 41.323 14.4209C40.815 14.818 40.6118 15.3144 40.815 15.7115C40.9166 15.8108 40.9166 15.9101 40.9166 16.1086C40.0023 20.5762 38.6816 24.8453 37.1577 29.2136C36.5482 30.9014 35.9386 32.4899 35.329 34.0784C34.5163 32.5891 33.7036 31.0007 32.9924 29.4122C31.0622 24.6467 29.2335 19.782 26.8969 15.2151C27.2017 13.1302 22.3253 13.3288 21.4109 15.2151C20.2934 17.5978 20.395 19.9806 20.8014 22.4626C21.2077 25.3417 21.3093 28.1215 21.3093 31.0007C21.4109 36.5604 21.8173 42.0208 21.9189 47.5805C21.4109 48.1761 21.3093 48.7718 21.8173 49.4668C22.0205 49.7646 22.3253 49.9632 22.63 50.261C23.9507 51.2538 27.608 50.4596 27.608 48.474C27.608 42.7157 27.2017 37.0568 26.9985 31.2985C26.9985 30.7028 26.9985 30.2064 26.9985 29.6107C27.1001 29.8093 27.2017 30.0079 27.2017 30.2064C28.116 32.3906 29.0303 34.5748 30.351 36.6596C31.5701 38.7445 32.1797 40.9287 32.8908 43.1129C32.5861 43.4107 32.4845 43.7085 32.5861 44.1057C32.4845 44.4035 32.6877 44.5028 32.9924 44.6021C33.9068 45.3963 35.6338 44.9992 36.5482 44.6021C36.9545 44.4035 37.3609 44.2049 37.7673 44.0064C38.2752 43.7085 38.9864 43.0136 38.7832 42.4179C38.7832 42.3186 38.6816 42.1201 38.6816 42.0208C39.3927 40.2337 39.6975 38.4467 40.1039 36.5604C40.5102 34.5748 41.2214 32.6884 41.9325 30.8021C42.0341 31.6956 42.0341 32.4899 42.1357 33.3834C42.4405 36.9575 42.1357 40.4323 42.1357 44.0064C42.1357 45.1977 42.2373 46.2898 42.4405 47.3819C42.5421 47.8783 42.9485 49.8639 42.8469 49.9632C41.9325 50.7574 42.2373 51.7502 43.3548 51.9488C44.6755 52.2466 46.301 51.8495 47.3169 50.956C48.9424 49.5661 48.1297 47.1833 47.7233 45.1977Z" fill="#6BC6B3"/>
</svg>
